<?xml version="1.0" encoding="UTF-8"?>
<svg width="512" height="512" version="1.1" viewBox="0 0 135.47 135.47" xmlns="http://www.w3.org/2000/svg">
 <g fill="#ffb40a">
  <path d="m89.767 73.711c-3.2631 8.0267-10.093 14.367-18.534 16.967 0.50537 2.5267 1.7048 4.96 3.4985 7.14 1.7937 2.1067 3.9201 3.92 6.2989 5.4133-5.4613-0.42667-10.598-2.8533-14.368-6.5867-4.0089 1.28-8.2045 1.9733-12.454 2.0267 15.593 12.56 38.634 10.307 52.029-5.04 13.395-15.347 12.506-38.507-2.0267-52.755-3.68-3.6266-8.0267-6.3733-12.667-8.1226 3.6267 4.8 5.5467 10.92 5.4614 17.107-9.3e-4 8.7499-2.6024 17.194-7.2425 24.427z"/>
  <path d="m79.084 20.576-22.044 44.693 3.3387 8.7466 2.9866-4.5333c0.33603-0.50537 0.75447-0.9387 1.2427-1.28l16.967-12.474 14.453 9.4933 5.5467-1.2427-22.49-43.394z"/>
  <path d="m34.338 27.583-3.4986 5.0346c-5.3333 7.7493-8.2133 16.804-8.3413 26.237-3.4e-4 25.28 20.523 45.803 45.803 45.803 15.36 0 29.675-7.7494 38.101-20.607-12.954 13.773-34.684 14.453-48.458 1.4987-13.791-12.954-14.453-34.684-1.4987-48.458 4.9387-5.248 11.392-8.8747 18.372-10.411-6.6133-3.6693-14.09-5.5467-21.697-5.5467-5.7174-1e-3 -11.435 1.152-16.773 3.4985z"/>
 </g>
</svg>